@<svg width="100" height="31" viewBox="0 0 100 31" fill="none" xmlns="http://www.w3.org/2000/svg">
<path d="M4.6875 25.7812C3.1901 27.7995 2.01823 28.418 1.17188 27.6367C0.390625 26.8555 0 25.5859 0 23.8281C0 19.4661 1.30208 15.4948 3.90625 11.9141C6.51042 8.33333 9.79818 5.46875 13.7695 3.32031C17.806 1.10677 21.875 0 25.9766 0C30.013 0 34.5378 0.878906 39.5508 2.63672C44.5638 4.32943 48.9909 5.92448 52.832 7.42188C58.2357 9.4401 62.9883 10.7422 67.0898 11.3281C71.2565 11.9141 76.1719 12.207 81.8359 12.207C84.7005 12.207 87.3047 11.7188 89.6484 10.7422C91.9922 9.76562 93.7826 7.8776 95.0195 5.07812C96.582 2.99479 97.7539 2.3763 98.5352 3.22266C99.3815 4.00391 99.8047 5.27344 99.8047 7.03125C99.8047 11.3932 98.5026 15.3646 95.8984 18.9453C93.2943 22.526 89.974 25.3906 85.9375 27.5391C81.9661 29.6875 77.8971 30.7617 73.7305 30.7617C71.3216 30.7617 68.457 30.3385 65.1367 29.4922C61.8815 28.6458 58.6263 27.6367 55.3711 26.4648C52.1159 25.293 49.3164 24.2839 46.9727 23.4375C41.5039 21.3542 36.7513 20.0195 32.7148 19.4336C28.7435 18.8477 23.8607 18.5547 18.0664 18.5547C15.2018 18.5547 12.5651 19.043 10.1562 20.0195C7.7474 20.9961 5.92448 22.9167 4.6875 25.7812ZM94.4336 0.0976562C94.043 0.16276 93.7174 0.195312 93.457 0.195312C93.2617 0.195312 93.5872 0.16276 94.4336 0.0976562Z" fill="#49505E"/>
</svg>
